# xmcd
#
# Track frame offsets: 
#        182
#        27520
#        51682
#        76907
#
# Disc length: 1388 seconds
#
# Revision: 0
# Processed by: cddbd v1.5.2PL0 Copyright (c) Steve Scherf et al.
# Submitted via: ExactAudioCopy v0.99pb5
#
DISCID=30056a04
DTITLE=S.A.Y. Feat. Pete D. Moore - Music Takes You Higher (Remixes)
DYEAR=1995
DGENRE=Eurodance
TTITLE0=Music Takes You Higher (Sounddesign Android Remix)
TTITLE1=Music Takes You Higher (Club Remix)
TTITLE2=Music Takes You Higher (Pascal Device Remix)
TTITLE3=Music Takes You Higher (Instrumental Remix)
EXTD=
EXTT0=
EXTT1=
EXTT2=
EXTT3=
PLAYORDER=
